<?xml version="1.0" encoding="UTF-8" standalone="no"?>
<!-- Created with Inkscape (http://www.inkscape.org/) -->

<svg
   width="150"
   height="48"
   viewBox="0 0 39.6875 12.7"
   version="1.1"
   id="svg5"
   inkscape:version="1.1 (c68e22c387, 2021-05-23)"
   sodipodi:docname="today2.svg"
   xmlns:inkscape="http://www.inkscape.org/namespaces/inkscape"
   xmlns:sodipodi="http://sodipodi.sourceforge.net/DTD/sodipodi-0.dtd"
   xmlns:xlink="http://www.w3.org/1999/xlink"
   xmlns="http://www.w3.org/2000/svg"
   xmlns:svg="http://www.w3.org/2000/svg">
  <sodipodi:namedview
     id="namedview7"
     pagecolor="#ffffff"
     bordercolor="#666666"
     borderopacity="1.0"
     inkscape:pageshadow="2"
     inkscape:pageopacity="0.0"
     inkscape:pagecheckerboard="0"
     inkscape:document-units="px"
     showgrid="true"
     inkscape:snap-grids="false"
     inkscape:zoom="12.864318"
     inkscape:cx="66.229706"
     inkscape:cy="25.302546"
     inkscape:window-width="2705"
     inkscape:window-height="1270"
     inkscape:window-x="380"
     inkscape:window-y="380"
     inkscape:window-maximized="0"
     inkscape:current-layer="layer1"
     width="150px"
     inkscape:object-nodes="false"
     inkscape:snap-nodes="false">
    <inkscape:grid
       type="xygrid"
       id="grid824" />
  </sodipodi:namedview>
  <defs
     id="defs2">
    <inkscape:path-effect
       effect="lattice2"
       gridpoint0="-34.821599,-14.477531"
       gridpoint1="9.0561313,-13.371808"
       gridpoint2="-39.490208,25.590202"
       gridpoint3="0.39463316,25.590202"
       gridpoint4="-29.518998,-14.723247"
       gridpoint5="-9.5765771,-14.723247"
       gridpoint6="-29.518998,25.590202"
       gridpoint7="-9.5765771,25.590202"
       gridpoint8x9="-16.292047,-16.074687"
       gridpoint10x11="-20.837798,24.484479"
       gridpoint12="-39.490208,-4.6448849"
       gridpoint13="-2.3082457,-2.0034351"
       gridpoint14="-39.98164,10.167511"
       gridpoint15="-4.3354048,19.381871"
       gridpoint16="-29.518998,-4.6448849"
       gridpoint17="-9.5765771,-4.6448849"
       gridpoint18="-29.518998,15.51184"
       gridpoint19="-9.5765771,15.51184"
       gridpoint20x21="-19.547787,-4.6448849"
       gridpoint22x23="-19.547787,15.51184"
       gridpoint24x26="-37.524478,2.1163078"
       gridpoint25x27="0.39463316,5.4334773"
       gridpoint28x30="-29.518998,5.4334773"
       gridpoint29x31="-9.5765771,5.4334773"
       gridpoint32x33x34x35="-19.547787,5.4334773"
       id="path-effect983"
       is_visible="true"
       lpeversion="1"
       horizontal_mirror="false"
       vertical_mirror="false"
       perimetral="false"
       live_update="true" />
    <linearGradient
       inkscape:collect="always"
       id="linearGradient7815">
      <stop
         style="stop-color:#e18200;stop-opacity:0.9921568"
         offset="0"
         id="stop7811" />
      <stop
         style="stop-color:#ff9503;stop-opacity:0.99215686"
         offset="0.45416331"
         id="stop9972" />
      <stop
         style="stop-color:#fffe13;stop-opacity:0.93333334"
         offset="0.85333192"
         id="stop9455" />
      <stop
         style="stop-color:#ff8500;stop-opacity:1"
         offset="1"
         id="stop7813" />
    </linearGradient>
    <filter
       style="color-interpolation-filters:sRGB;"
       inkscape:label="Blur"
       id="filter6774"
       x="-0.03785555"
       y="-0.17232266"
       width="1.0757111"
       height="1.3446453">
      <feGaussianBlur
         stdDeviation="0.3 0.3"
         result="blur"
         id="feGaussianBlur6772" />
    </filter>
    <linearGradient
       inkscape:collect="always"
       xlink:href="#linearGradient7815"
       id="linearGradient9684"
       gradientUnits="userSpaceOnUse"
       x1="38.314678"
       y1="16.874449"
       x2="0.95219761"
       y2="16.799488" />
    <filter
       inkscape:collect="always"
       style="color-interpolation-filters:sRGB"
       id="filter9727"
       x="-0.072755715"
       y="-0.070149988"
       width="1.1455114"
       height="1.1403">
      <feGaussianBlur
         inkscape:collect="always"
         stdDeviation="0.30823632"
         id="feGaussianBlur9729" />
    </filter>
  </defs>
  <g
     inkscape:label="Layer 1"
     inkscape:groupmode="layer"
     id="layer1">
    <rect
       style="fill:url(#linearGradient9684);fill-opacity:1;stroke:#0092ff;stroke-width:0.507848;stroke-linecap:round;stroke-linejoin:round;stroke-miterlimit:4;stroke-dasharray:none;stroke-dashoffset:9.19999;stroke-opacity:1"
       id="rect850"
       width="37.041664"
       height="10.31875"
       x="1.3229166"
       y="1.3229166"
       ry="3.9736431e-08" />
    <g
       id="g851"
       transform="translate(-1.007794,1.3163024)">
      <text
         xml:space="preserve"
         style="font-size:5.64444px;line-height:1.25;font-family:Arial;-inkscape-font-specification:Arial;fill:#000000;stroke-width:0.264583;filter:url(#filter6774)"
         x="11.970515"
         y="15.912165"
         id="text6598"
         transform="rotate(-16.96912,-1.980472,-8.9827968)"><tspan
           sodipodi:role="line"
           id="tspan6596"
           style="font-style:normal;font-variant:normal;font-weight:bold;font-stretch:normal;font-size:5.64444px;font-family:Arial;-inkscape-font-specification:'Arial Bold';fill:#000000;stroke-width:0.264583"
           x="11.970515"
           y="15.912165">TODAY</tspan></text>
      <text
         xml:space="preserve"
         style="font-size:5.64444px;line-height:1.25;font-family:Arial;-inkscape-font-specification:Arial;fill:#00ffff;stroke-width:0.264583"
         x="15.534111"
         y="15.140478"
         id="text3027"
         transform="rotate(-16.96912)"><tspan
           sodipodi:role="line"
           id="tspan3025"
           style="font-style:normal;font-variant:normal;font-weight:bold;font-stretch:normal;font-size:5.64444px;font-family:Arial;-inkscape-font-specification:'Arial Bold';fill:#00ffff;stroke-width:0.264583"
           x="15.534111"
           y="15.140478">TODAY</tspan></text>
    </g>
    <g
       id="g862"
       transform="translate(2.1595587,0.06170168)">
      <path
         id="path9689"
         inkscape:transform-center-x="0.15388575"
         inkscape:transform-center-y="-0.027346269"
         d="M 10.352563,12.430295 C 9.8928074,12.036914 9.4653129,11.562496 9.0522779,10.968321 8.6815504,10.435007 8.4379739,9.9824505 8.4379739,9.9824505 8.0654419,10.437919 7.6386803,10.998844 7.2263209,11.653577 6.8461271,12.257237 6.595365,12.770567 6.595365,12.770567 6.558996,12.121267 6.592425,11.387368 6.684765,10.555591 6.767894,9.8067605 6.8642897,9.2389695 6.8642897,9.2389695 6.3091621,9.3843755 5.7356108,9.5663915 5.072965,9.8212215 4.4825587,10.048271 4.0128545,10.255529 4.0128545,10.255529 4.4132929,9.6343895 4.8552547,9.0152545 5.3636632,8.4108065 5.8213008,7.8667205 6.1964591,7.4987275 6.1964591,7.4987275 5.6535915,7.1760525 5.2966279,6.9849375 4.6213165,6.6108205 4.0845092,6.3134335 3.6675965,6.0594485 3.6675965,6.0594485 4.1916398,6.0593455 4.7886837,6.0168305 5.5038892,5.9512875 6.1491445,5.8921555 6.6783984,5.8384725 6.6783984,5.8384725 6.4774061,5.3962625 6.2313733,4.9867265 5.8832901,4.5514605 5.5744052,4.1652105 5.2868896,3.8690225 5.2868896,3.8690225 c 0.5964695,0.16172 1.2890513,0.34655 1.953274,0.583368 0.6125041,0.21838 1.0434608,0.433298 1.0434608,0.433298 0.1997869,-0.362165 0.5525461,-0.99872 0.8474837,-1.542976 C 9.4347379,2.7824165 9.7272284,2.22506 9.7272284,2.22506 c 0.09108,0.4970317 0.227275,1.1633745 0.3207336,1.7081585 0.09291,0.541601 0.148863,0.987336 0.148863,0.987336 0.522095,-0.249554 1.106404,-0.548961 1.732621,-0.918103 0.571549,-0.336916 1.033726,-0.649257 1.033726,-0.649257 -0.352491,0.604219 -0.712138,1.203289 -1.101164,1.841935 -0.348336,0.571848 -0.61369,1.003723 -0.61369,1.003723 0.421887,0.140228 1.033966,0.362286 1.570776,0.526155 0.532637,0.162595 1.016325,0.256487 1.016325,0.256487 -0.566481,0.283605 -1.101253,0.520857 -1.698893,0.752097 -0.531912,0.205807 -0.957936,0.350798 -0.957936,0.350798 0.258838,0.486224 0.581562,1.069509 0.967035,1.632857 0.358408,0.5237955 0.682265,0.8856615 0.682265,0.8856615 C 12.305043,10.438432 11.765959,10.221309 11.141391,9.9551215 10.584186,9.7176455 10.14154,9.5265065 10.14154,9.5265065 10.07826,10.545104 10.1101,11.561654 10.352563,12.430295 Z"
         style="mix-blend-mode:normal;fill:#000000;stroke:none;stroke-width:0.264583;stroke-linecap:round;stroke-linejoin:round;stroke-dashoffset:9.19999;filter:url(#filter9727)"
         transform="matrix(1.1073037,0,0,1.1073037,-1.8567089,-1.2440367)" />
      <path
         id="path901"
         inkscape:transform-center-x="0.15388564"
         inkscape:transform-center-y="-0.027346275"
         d="M 10.226238,11.638599 C 9.7171488,11.203006 9.2437822,10.677682 8.786427,10.01975 8.3759191,9.4292081 8.1062059,8.9280903 8.1062059,8.9280903 7.6936999,9.4324331 7.2211452,10.053548 6.7645381,10.778536 c -0.42099,0.668435 -0.6986598,1.236847 -0.6986598,1.236847 -0.040271,-0.718972 -0.00326,-1.531621 0.098993,-2.4526519 0.092049,-0.829183 0.1987884,-1.4579 0.1987884,-1.4579 C 5.7489648,8.2658397 5.1138693,8.4673867 4.3801191,8.7495609 3.72636,9.0009731 3.2062548,9.2304711 3.2062548,9.2304711 3.6496618,8.5426811 4.1390477,7.8571106 4.7020103,7.1878031 5.2087541,6.5853347 5.6241683,6.1778547 5.6241683,6.1778547 5.023049,5.8205554 4.6277819,5.6089331 3.8800071,5.1946719 3.2855984,4.8653742 2.8239494,4.5841357 2.8239494,4.5841357 3.4042245,4.5840216 4.0653334,4.5369446 4.8572831,4.4643686 5.5717767,4.3988915 6.1578215,4.3394481 6.1578215,4.3394481 5.935262,3.8497873 5.6628289,3.3963065 5.2773951,2.9143349 4.9353657,2.4866388 4.6169986,2.1586688 4.6169986,2.1586688 5.2774715,2.3377419 6.0443699,2.5424049 6.7798662,2.8046343 7.4580942,3.0464473 7.9352942,3.2844268 7.9352942,3.2844268 8.1565189,2.8834001 8.5471305,2.1785404 8.873716,1.5758839 9.2099264,0.95546596 9.5338028,0.33830306 9.5338028,0.33830306 9.6346578,0.88866806 9.7854648,1.626512 9.8889528,2.2297532 9.9918368,2.82947 10.053789,3.323034 10.053789,3.323034 10.631906,3.046702 11.278914,2.7151675 11.972326,2.3064152 12.605204,1.933347 13.116975,1.5874906 13.116975,1.5874906 12.72666,2.2565444 12.328421,2.9198969 11.897652,3.6270719 11.511938,4.2602814 11.21811,4.7384983 11.21811,4.7384983 c 0.467157,0.1552749 1.144915,0.4011606 1.739326,0.5826133 0.589791,0.1800421 1.125381,0.284009 1.125381,0.284009 -0.627267,0.3140369 -1.219422,0.5767469 -1.881191,0.8327998 -0.588988,0.2278909 -1.060726,0.38844 -1.060726,0.38844 0.286613,0.5383976 0.643966,1.1842712 1.070802,1.8080686 0.396866,0.5800001 0.755474,0.9806971 0.755474,0.9806971 -0.57895,-0.182125 -1.17588,-0.422547 -1.867466,-0.7172973 -0.616995,-0.262958 -1.1071392,-0.4746069 -1.1071392,-0.4746069 -0.07007,1.1278972 -0.03481,2.2535271 0.2336672,3.2153771 z"
         style="fill:#ff6600;stroke:none;stroke-width:0.292974;stroke-linecap:round;stroke-linejoin:round;stroke-dashoffset:9.19999" />
      <g
         id="g3160"
         transform="matrix(1.1073037,0,0,1.1073037,-5.4043112,9.2423131)">
        <circle
           style="fill:#000000;fill-opacity:1;stroke:#b4b4b4;stroke-width:0.264583;stroke-linecap:round;stroke-linejoin:round;stroke-dashoffset:9.19999;stroke-opacity:1"
           id="path6494"
           cx="11.975158"
           cy="-3.949959"
           r="0.66145831" />
        <path
           style="fill:#ffffff;stroke:none;stroke-width:0.264583px;stroke-linecap:butt;stroke-linejoin:miter;stroke-opacity:1"
           d="m 11.803324,-4.2568092 c 0.254801,0.2394788 0.310628,0.3277627 0.431118,0.5631727 0.116606,-0.2151282 0.09611,-0.3773018 -0.0039,-0.4893777 -0.1,-0.112076 -0.211231,-0.1336628 -0.427234,-0.073795 z"
           id="path1357"
           sodipodi:nodetypes="cczc" />
      </g>
      <g
         id="g3166"
         transform="matrix(1.1073037,0,0,1.1073037,-2.9321328,10.053233)">
        <circle
           style="fill:#000000;fill-opacity:1;stroke:#b4b4b4;stroke-width:0.264583;stroke-linecap:round;stroke-linejoin:round;stroke-dashoffset:9.19999;stroke-opacity:1"
           id="circle3162"
           cx="11.975158"
           cy="-3.949959"
           r="0.66145831" />
        <path
           style="fill:#ffffff;stroke:none;stroke-width:0.264583px;stroke-linecap:butt;stroke-linejoin:miter;stroke-opacity:1"
           d="m 11.803324,-4.2568092 c 0.254801,0.2394788 0.310628,0.3277627 0.431118,0.5631727 0.116606,-0.2151282 0.09611,-0.3773018 -0.0039,-0.4893777 -0.1,-0.112076 -0.211231,-0.1336628 -0.427234,-0.073795 z"
           id="path3164"
           sodipodi:nodetypes="cczc" />
      </g>
      <path
         style="fill:#ffffff;stroke:#000000;stroke-width:0.262721px;stroke-linecap:butt;stroke-linejoin:miter;stroke-opacity:1"
         d="M 7.9082688,7.7079575 C 8.3122735,7.8977234 9.3992468,8.0168269 10.656697,7.1601574 8.7978359,7.063013 7.626528,6.4464745 6.613784,5.7495866 6.9826563,7.0723797 7.504264,7.5181915 7.9082688,7.7079575 Z"
         id="path1032"
         sodipodi:nodetypes="zccz" />
    </g>
  </g>
</svg>
